<svg width="259" height="259" viewBox="0 0 259 259" fill="none" xmlns="http://www.w3.org/2000/svg">
<g clip-path="url(#clip0_24_166)">
<path d="M68.9835 157.454C68.2862 157.454 67.5818 157.441 66.8903 157.415L66.906 156.817C67.8989 156.854 68.9121 156.864 69.9096 156.848L69.9165 157.447C69.606 157.452 69.295 157.454 68.9835 157.454ZM72.9409 157.316L72.9115 156.718C73.9058 156.648 74.9129 156.55 75.9047 156.426L75.9572 157.021C74.9578 157.146 73.9431 157.245 72.9409 157.316ZM63.8686 157.222C62.8659 157.131 61.8527 157.011 60.8569 156.865L60.9183 156.271C61.9065 156.415 62.9118 156.535 63.9069 156.625L63.8686 157.222ZM78.9588 156.564L78.8835 155.972C79.8714 155.794 80.867 155.586 81.8416 155.356L81.9396 155.943C80.9573 156.175 79.9544 156.384 78.9588 156.564ZM57.8626 156.345C56.8721 156.145 55.8722 155.915 54.8909 155.662L54.9975 155.076C55.9714 155.328 56.9635 155.556 57.9465 155.755L57.8626 156.345ZM84.8938 155.159L84.7731 154.578C85.7428 154.292 86.718 153.977 87.6716 153.64L87.8144 154.214C86.8535 154.553 85.871 154.871 84.8938 155.159ZM51.9491 154.816C50.9774 154.508 49.9997 154.169 49.0429 153.809L49.1944 153.238C50.1439 153.596 51.1142 153.932 52.0782 154.237L51.9491 154.816ZM90.6953 153.109L90.5303 152.544C91.4714 152.154 92.4178 151.733 93.3439 151.292L93.5304 151.848C92.5975 152.292 91.6437 152.717 90.6953 153.109H90.6953ZM46.1714 152.64C45.2278 152.227 44.2783 151.781 43.3495 151.316L43.5446 150.764C44.4663 151.226 45.4084 151.668 46.3449 152.078L46.1714 152.64ZM96.3075 150.435L96.0993 149.89C97.0031 149.401 97.9115 148.879 98.7993 148.338L99.028 148.871C98.1334 149.416 97.2181 149.942 96.3075 150.435H96.3075ZM101.686 147.16L101.437 146.641C102.304 146.052 103.169 145.432 104.008 144.8L104.276 145.306C103.431 145.943 102.559 146.567 101.686 147.16H101.686ZM106.794 143.312L106.506 142.821C107.322 142.142 108.137 141.431 108.927 140.708L109.233 141.182C108.437 141.911 107.616 142.628 106.794 143.312ZM30.1788 142.469C29.3675 141.767 28.557 141.031 27.7697 140.283L28.0834 139.815C28.8646 140.558 29.669 141.288 30.474 141.984L30.1788 142.469ZM111.589 138.923L111.265 138.465C112.025 137.7 112.782 136.904 113.515 136.097L113.856 136.537C113.118 137.35 112.355 138.152 111.589 138.923H111.589ZM25.4473 137.969C24.6916 137.181 23.9409 136.361 23.2161 135.532L23.5642 135.1C24.2836 135.923 25.0285 136.737 25.7784 137.519L25.4473 137.969ZM116.031 134.029L115.673 133.609C116.374 132.763 117.068 131.887 117.734 131.006L118.108 131.407C117.436 132.294 116.737 133.177 116.031 134.029ZM21.0809 132.978C20.3877 132.11 19.703 131.212 19.0459 130.311L19.4256 129.919C20.0777 130.813 20.7571 131.704 21.4452 132.565L21.0809 132.978ZM120.082 128.674L119.694 128.294C120.327 127.375 120.951 126.428 121.548 125.477L121.951 125.835C121.349 126.794 120.721 127.749 120.082 128.674L120.082 128.674ZM17.1153 127.537C16.4928 126.6 15.8797 125.633 15.2932 124.662L15.7012 124.312C16.2832 125.276 16.8916 126.236 17.5095 127.166L17.1153 127.537ZM123.709 122.898L123.293 122.562C123.854 121.579 124.403 120.567 124.925 119.554L125.353 119.868C124.827 120.888 124.274 121.908 123.709 122.898L123.709 122.898ZM13.5837 121.692C13.036 120.692 12.4999 119.663 11.9902 118.633L12.4232 118.329C12.9291 119.351 13.4611 120.372 14.0046 121.365L13.5837 121.692ZM126.879 116.75L126.44 116.46C126.922 115.42 127.391 114.352 127.834 113.285L128.284 113.551C127.838 114.625 127.366 115.702 126.879 116.75ZM129.564 110.277L129.104 110.037C129.504 108.948 129.889 107.832 130.247 106.721L130.716 106.936C130.355 108.055 129.967 109.179 129.564 110.277ZM7.93969 108.986C7.55434 107.884 7.1853 106.757 6.8429 105.636L7.31539 105.431C7.65509 106.544 8.0213 107.662 8.40359 108.755L7.93969 108.986ZM131.738 103.533L131.26 103.345C131.574 102.219 131.87 101.068 132.14 99.9244L132.624 100.086C132.352 101.239 132.054 102.399 131.738 103.533ZM5.8746 102.221C5.57552 101.08 5.29448 99.9144 5.03934 98.7562L5.52557 98.6042C5.77875 99.7537 6.05771 100.91 6.35445 102.043L5.8746 102.221ZM133.376 96.5948L132.886 96.4591C133.111 95.3053 133.317 94.127 133.498 92.9574L133.992 93.0655C133.81 94.2445 133.603 95.4316 133.376 96.5948V96.5948ZM4.33932 95.2495C4.12971 94.0802 3.93998 92.8889 3.77552 91.7082L4.27134 91.61C4.43468 92.7819 4.62294 93.9641 4.83096 95.1244L4.33932 95.2495ZM134.471 89.507L133.973 89.4258C134.108 88.2532 134.223 87.0576 134.313 85.8719L134.813 85.9257C134.723 87.1208 134.607 88.3254 134.471 89.507V89.507ZM3.34869 88.1401C3.23014 86.955 3.13281 85.748 3.0593 84.5527L3.56076 84.5088C3.63353 85.6954 3.73024 86.893 3.84793 88.0694L3.34869 88.1401ZM135.018 82.3301L134.516 82.3032C134.561 81.117 134.583 79.9137 134.583 78.7272H135.086C135.086 79.9228 135.063 81.1351 135.018 82.3301ZM2.907 80.9527C2.88982 80.2186 2.88111 79.4697 2.88098 78.7272C2.88098 78.2665 2.8843 77.8066 2.89092 77.3477L3.3936 77.3582C3.38698 77.8137 3.38366 78.27 3.38366 78.7272C3.38379 79.4641 3.3925 80.2075 3.40943 80.9363L2.907 80.9527ZM3.51289 73.7841L3.01119 73.7467C3.07391 72.5505 3.16055 71.3423 3.26842 70.1556L3.76816 70.22C3.66102 71.3978 3.57523 72.5968 3.51288 73.7841H3.51289ZM134.259 70.1316C134.158 68.9513 134.02 68.3759 133.875 67.2007L134.372 67.1133C134.519 68.2974 134.645 69.2013 134.746 70.3904L134.259 70.1316ZM4.15952 66.6738L3.66273 66.5823C3.81675 65.3979 3.99568 64.2042 4.19462 63.0339L4.68725 63.1526C4.4899 64.314 4.31231 65.4987 4.15952 66.6738ZM133.367 63.6757C133.175 62.5079 132.959 61.3323 132.724 60.1817L133.213 60.0402C133.449 61.1995 133.667 62.3842 133.861 63.5608L133.367 63.6757ZM5.3502 59.6641L4.86261 59.5185C5.10671 58.359 5.37707 57.1898 5.66621 56.0433L6.14753 56.2155C5.86073 57.3532 5.59246 58.5135 5.3502 59.6641ZM131.947 56.7265C131.666 55.5866 131.36 54.4399 131.036 53.318L131.511 53.1233C131.838 54.2538 132.147 55.4096 132.429 56.5581L131.947 56.7265ZM7.08062 52.8051L6.60641 52.6066C6.94047 51.4748 7.30116 50.3377 7.67841 49.2267L8.14452 49.4512C7.77009 50.5536 7.4121 51.6821 7.08062 52.8051ZM129.994 49.9629C129.628 48.8611 129.235 47.7554 128.827 46.6763L129.286 46.4304C129.697 47.5179 130.092 48.6321 130.462 49.7422L129.994 49.9629ZM9.33679 46.1605L8.88001 45.9105C9.29985 44.8216 9.74669 43.7296 10.2081 42.665L10.6549 42.9395C10.1968 43.9961 9.75344 45.0797 9.33679 46.1605ZM127.534 43.4557C127.084 42.3988 126.608 41.3397 126.118 40.3082L126.555 40.0133C127.049 41.0528 127.529 42.1199 127.983 43.185L127.534 43.4557ZM12.0958 39.7949L11.6601 39.4962C12.1615 38.4591 12.6904 37.4211 13.232 36.4111L13.6556 36.7332C13.1182 37.7356 12.5933 38.7658 12.0958 39.7949ZM124.581 37.24C124.05 36.2329 123.494 35.2296 122.928 34.2579L123.341 33.9168C123.911 34.8959 124.472 35.9068 125.007 36.9216L124.581 37.24ZM15.3313 33.7605L14.9204 33.4156C15.4999 32.4368 16.1058 31.4611 16.7216 30.5157L17.1188 30.8826C16.5077 31.821 15.9063 32.7892 15.3313 33.7605ZM121.162 31.3681C120.556 30.4232 119.925 29.4838 119.286 28.5761L119.672 28.1916C120.315 29.1063 120.951 30.0527 121.561 31.0048L121.162 31.3681ZM19.0143 28.1056L18.6316 27.7174C19.2819 26.8077 19.9597 25.9022 20.6461 25.0261L21.0136 25.4345C20.3324 26.304 19.6598 27.2028 19.0143 28.1056ZM117.306 25.888C116.631 25.0127 115.93 24.145 115.224 23.3096L115.579 22.8848C116.29 23.7269 116.996 24.6009 117.676 25.4829L117.306 25.888ZM23.1123 22.8755L22.7608 22.4475C23.4796 21.61 24.2234 20.7819 24.9714 19.9865L25.3062 20.4332C24.5639 21.2225 23.8257 22.0442 23.1123 22.8755ZM113.046 20.846C112.306 20.0466 111.542 19.2582 110.776 18.5027L111.096 18.0414C111.868 18.8026 112.638 19.597 113.384 20.4025L113.046 20.846ZM27.5908 18.1124L27.2734 17.6482C28.0509 16.8942 28.8543 16.1505 29.6616 15.4378L29.9611 15.9187C29.1598 16.6261 28.3623 17.3641 27.5908 18.1124ZM32.412 13.8566L32.1315 13.3599C32.9635 12.6931 33.8202 12.0402 34.6776 11.4189L34.9388 11.9304C34.0879 12.547 33.2378 13.195 32.412 13.8566ZM37.5363 10.1443L37.295 9.61901C38.1753 9.04532 39.0779 8.48872 39.9777 7.96444L40.1986 8.50232C39.3057 9.02252 38.4099 9.57486 37.5363 10.1443ZM98.2023 8.75723C97.3079 8.22649 96.3917 7.71377 95.4791 7.23333L95.6823 6.6858C96.602 7.16989 97.5254 7.68658 98.4267 8.22139L98.2023 8.75723ZM42.9204 7.0078L42.7206 6.4585C43.6406 5.98361 44.5817 5.52817 45.5176 5.10473L45.696 5.66454C44.7672 6.08462 43.8334 6.53656 42.9204 7.0078ZM92.6989 5.85997C91.7681 5.43011 90.8155 5.01996 89.8674 4.64111L90.0274 4.07341C90.9827 4.45533 91.9426 4.86853 92.8805 5.30191L92.6989 5.85997ZM48.5275 4.472L48.3709 3.90314C49.3262 3.53012 50.3009 3.17889 51.2677 2.85953L51.4021 3.43629C50.4426 3.75332 49.4754 4.10177 48.5275 4.472ZM86.9986 3.58187C86.0398 3.25636 85.062 2.95322 84.0922 2.68092L84.2075 2.09831C85.1849 2.37266 86.1702 2.67813 87.1365 3.00598L86.9986 3.58187ZM54.3139 2.55945L54.2019 1.97582C55.1813 1.70937 56.1789 1.46659 57.167 1.25436L57.2563 1.8434C56.2756 2.05417 55.2857 2.29504 54.3139 2.55945ZM81.1539 1.94074C80.175 1.72194 79.178 1.52724 78.1903 1.36208L78.2601 0.769243C79.2554 0.935722 80.2602 1.13187 81.2467 1.35229L81.1539 1.94074ZM60.2234 1.2893L60.1569 0.695874C61.152 0.537725 62.1639 0.404715 63.1646 0.300942L63.2083 0.897287C62.2152 1.00047 61.2111 1.13231 60.2234 1.2893ZM75.2074 0.945813C74.2172 0.83473 73.2094 0.749079 72.2117 0.691635L72.2362 0.0935475C73.2413 0.151575 74.2568 0.237813 75.2545 0.349785L75.2074 0.945813ZM66.2058 0.667664L66.1847 0.0695761C67.1085 0.0236809 68.0501 0.000293356 68.9835 0L69.211 0.000440204L69.2096 0.599126L68.9835 0.598686C68.0572 0.598961 67.1225 0.622202 66.2058 0.667657V0.667664Z" fill="#3F3D56"/>
<path d="M149.859 28.1998V222.234C149.857 224.545 149.085 226.761 147.713 228.395C146.34 230.029 144.479 230.947 142.538 230.948H76.3976C75.4361 230.95 74.4837 230.726 73.5949 230.289C72.7062 229.852 71.8987 229.21 71.2185 228.4C70.5384 227.591 69.999 226.63 69.6314 225.571C69.2637 224.513 69.075 223.379 69.0761 222.234V28.1998C69.076 27.0547 69.2653 25.9208 69.6332 24.8628C70.0011 23.8048 70.5404 22.8435 71.2203 22.0337C71.9002 21.224 72.7073 20.5817 73.5957 20.1435C74.484 19.7054 75.4361 19.4799 76.3976 19.48H86.2954V20.9917C86.2952 22.8958 86.93 24.7221 88.0603 26.0688C89.1906 27.4155 90.7237 28.1723 92.3225 28.1729H125.962C127.249 28.1762 128.502 27.6849 129.536 26.772C129.745 26.5909 129.943 26.3929 130.129 26.1793C130.718 25.5097 131.186 24.7046 131.506 23.8128C131.826 22.9211 131.99 21.9613 131.989 20.9917V19.48H142.538C143.499 19.4796 144.452 19.7049 145.34 20.143C146.228 20.5811 147.036 21.2234 147.716 22.0332C148.396 22.843 148.935 23.8044 149.303 24.8625C149.671 25.9206 149.86 27.0546 149.859 28.1998Z" fill="#3F3D56"/>
<path d="M140.19 89.4275H78.7458V145.105H140.19V89.4275Z" fill="#7EB685"/>
<path d="M46.3901 80.0464C51.8607 80.1862 56.2126 84.9078 56.2126 84.9078C56.2126 84.9078 51.6947 89.4028 46.2241 89.263C40.7535 89.1232 36.4017 84.4017 36.4017 84.4017C36.4017 84.4017 40.9195 79.9066 46.3901 80.0464Z" fill="#7EB685"/>
<path d="M18.8866 57.8057C23.8291 60.6022 29.4966 58.7058 29.4966 58.7058C29.4966 58.7058 27.1507 52.2754 22.2082 49.4789C17.2657 46.6824 11.5983 48.5787 11.5983 48.5787C11.5983 48.5787 13.9442 55.0091 18.8866 57.8057Z" fill="#7EB685"/>
<path d="M19.3891 55.0268C24.8383 54.4337 29.6079 58.5431 29.6079 58.5431C29.6079 58.5431 25.5427 63.6142 20.0935 64.2073C14.6444 64.8004 9.87469 60.6909 9.87469 60.6909C9.87469 60.6909 13.9399 55.6199 19.3891 55.0268Z" fill="#3F3D56"/>
<path d="M39.364 56.1504C38.8417 62.6375 42.2708 68.3364 42.2708 68.3364C42.2708 68.3364 46.5468 63.5175 47.0691 57.0303C47.5914 50.5431 44.1622 44.8442 44.1622 44.8442C44.1622 44.8442 39.8863 49.6632 39.364 56.1504Z" fill="#3F3D56"/>
<path d="M65.0269 95.936C62.1688 101.493 63.1522 108.406 63.1522 108.406C63.1522 108.406 68.7694 106.308 71.6275 100.751C74.4857 95.1939 73.5023 88.2812 73.5023 88.2812C73.5023 88.2812 67.8851 90.3787 65.0269 95.936Z" fill="#3F3D56"/>
<path d="M56.7352 156.358L57.1517 156.023C55.6835 153.485 54.8819 150.485 54.8486 147.404C54.8603 142.897 56.7192 138.728 58.517 134.696C58.8507 133.947 59.1833 133.201 59.5032 132.456C60.8462 129.416 61.9165 126.216 62.6963 122.909C65.4848 110.567 62.7393 96.0061 55.3523 83.958C49.4922 74.4004 40.7565 66.0428 28.6464 58.4075L28.4113 58.9366C40.4524 66.5283 49.1321 74.8285 54.9463 84.3112C62.2445 96.2141 64.9602 110.585 62.2108 122.754C61.4401 126.02 60.3826 129.181 59.0558 132.184C58.7368 132.926 58.4055 133.669 58.073 134.415C56.2466 138.511 54.358 142.747 54.346 147.402C54.3792 150.604 55.2108 153.721 56.7352 156.358Z" fill="#3F3D56"/>
<path d="M4.77547 59.1941C7.41289 59.1941 9.55094 56.6477 9.55094 53.5066C9.55094 50.3655 7.41289 47.8191 4.77547 47.8191C2.13805 47.8191 0 50.3655 0 53.5066C0 56.6477 2.13805 59.1941 4.77547 59.1941Z" fill="#3F3D56"/>
<path d="M71.9994 145.828L42.0222 142.853V90.4896L71.9994 88.7046V145.828Z" fill="#7EB685"/>
<path d="M146.936 145.828L176.913 142.853V90.4896L146.936 88.7046V145.828Z" fill="#7EB685"/>
<path d="M119.888 110.326C118.996 109.408 117.897 108.824 116.728 108.647C115.558 108.47 114.371 108.708 113.315 109.331C112.398 109.859 111.411 110.195 110.398 110.325C110.373 107.711 110.775 105.117 111.584 102.687L111.716 102.279H109.955L109.904 102.499C109.708 103.359 109.553 104.231 109.441 105.111C109.345 104.729 109.222 104.359 109.072 104.003C107.836 101.085 104.981 99.8911 104.86 99.8418L104.616 99.7424L104.539 100.035C104.5 100.18 103.609 103.624 104.844 106.542C105.729 108.632 107.444 109.837 108.391 110.371C107.192 110.279 106.02 109.906 104.943 109.272C104.271 108.86 103.516 108.682 102.763 108.757C102.01 108.833 101.29 109.16 100.686 109.7C97.3962 112.677 95.5095 117.042 95.5095 121.674C95.5095 127.759 98.8182 133.332 103.939 135.871C104.401 136.099 104.896 136.216 105.396 136.215C106.091 136.216 106.773 135.993 107.37 135.571C108.163 135.021 109.065 134.73 109.983 134.728C110.902 134.726 111.804 135.012 112.6 135.558C113.114 135.92 113.692 136.134 114.288 136.184C114.884 136.234 115.481 136.118 116.033 135.846C121.124 133.297 124.414 127.734 124.414 121.674C124.414 117.336 122.806 113.306 119.888 110.326ZM110.339 102.878H110.986C110.258 105.199 109.888 107.657 109.891 110.134H109.776C109.62 107.695 109.81 105.242 110.339 102.878ZM105.293 106.273C104.355 104.057 104.766 101.417 104.948 100.526C105.658 100.88 107.683 102.053 108.623 104.272C109.561 106.487 109.15 109.128 108.968 110.019C108.258 109.663 106.231 108.488 105.293 106.273ZM115.838 135.294C115.359 135.531 114.839 135.631 114.321 135.587C113.804 135.543 113.302 135.357 112.855 135.042C111.981 134.442 110.99 134.127 109.982 134.129C108.974 134.132 107.984 134.452 107.113 135.056C106.667 135.372 106.166 135.56 105.649 135.606C105.131 135.651 104.612 135.553 104.132 135.318C99.1994 132.872 96.0121 127.517 96.0121 121.674C96.0121 117.23 97.8265 113.04 100.99 110.177C101.597 109.631 102.337 109.337 103.098 109.339C103.659 109.338 104.213 109.498 104.713 109.804C106.089 110.587 107.594 110.998 109.12 111.009C110.645 111.02 112.154 110.63 113.539 109.867C114.507 109.296 115.594 109.079 116.665 109.241C117.736 109.404 118.743 109.939 119.56 110.78C122.366 113.645 123.911 117.514 123.911 121.674C123.911 127.493 120.742 132.839 115.838 135.294Z" fill="white"/>
<path d="M56.9287 104.668V103.966H57.1633V101.776C57.1642 101.614 57.1276 101.454 57.0575 101.315C56.9875 101.176 56.8866 101.062 56.766 100.987C55.7286 100.342 54.6138 100.343 53.4524 100.99C53.3242 101.062 53.216 101.177 53.1402 101.32C53.0645 101.463 53.0244 101.628 53.0246 101.797V103.965H53.2591V104.602C52.3959 104.89 51.6359 105.507 51.0956 106.359C50.5553 107.211 50.2647 108.251 50.2682 109.319V114.056L50.7149 114.234L50.2682 114.588V116.012L50.7149 116.189L50.2682 116.544V117.968L50.7149 118.145L50.2682 118.5V129.343C50.269 130.188 50.5515 130.999 51.0536 131.597C51.5557 132.195 52.2365 132.532 52.9467 132.533H56.8954C57.6039 132.532 58.2832 132.196 58.7842 131.6C59.2852 131.003 59.567 130.194 59.5678 129.35V118.5L59.1211 118.145L59.5678 117.968V116.544L59.1211 116.189L59.5678 116.012V114.588L59.1211 114.234L59.5678 114.056V109.074C59.5648 108.105 59.3094 107.16 58.8367 106.371C58.364 105.582 57.6974 104.987 56.9287 104.668ZM53.6652 101.532C54.6918 100.961 55.6302 100.956 56.5333 101.518C56.5722 101.543 56.6045 101.58 56.6269 101.626C56.6493 101.671 56.661 101.723 56.6606 101.776V102.948H53.5273V101.797C53.5269 101.742 53.5396 101.688 53.564 101.641C53.5885 101.594 53.6235 101.556 53.6652 101.532ZM59.0651 113.625L57.9871 114.053L59.0651 114.909V115.58L57.9871 116.008L59.0651 116.864V117.536L57.9871 117.964L59.0651 118.82V129.35C59.0645 130.035 58.8357 130.692 58.4289 131.176C58.0221 131.661 57.4706 131.933 56.8954 131.934H52.9467C52.3698 131.933 51.8168 131.66 51.4089 131.174C51.001 130.688 50.7715 130.03 50.7709 129.343V118.82L51.8489 117.964L50.7709 117.536V116.864L51.8489 116.008L50.7709 115.58V114.909L51.8489 114.053L50.7709 113.625V109.319C50.7677 108.345 51.0429 107.4 51.5512 106.638C52.0594 105.875 52.7705 105.342 53.5672 105.125L53.7618 105.072V103.966H56.4261V105.112L56.6073 105.175C57.3149 105.423 57.9363 105.936 58.3791 106.639C58.8219 107.342 59.0625 108.196 59.0651 109.074V113.625Z" fill="white"/>
<path d="M175.075 112.867L173.809 112.565L174.107 111.856L173.527 111.717L173.627 110.998L172.993 110.872V110.191L172.479 110.016L172.967 109.289H172.12L172.297 108.763L171.671 108.639L171.883 107.751H171.206V106.924H170.954C170.162 106.924 169.721 108.044 169.576 108.492C165.204 109.4 152.512 119.871 151.063 121.075C150.461 120.842 149.569 121.387 149.382 121.509L149.087 121.7L149.513 122.207L149.386 122.66L150.167 123.009L149.996 123.518L150.488 124.006L150.046 124.401L150.711 124.877L150.594 125.571L151.337 125.698V126.393L151.768 126.496L151.553 127.393H152.032V128.103H152.499L152.711 128.859L152.929 128.807C153.434 128.687 153.867 127.853 154.037 127.484C158.247 126.589 171.244 115.698 172.51 114.631C173.987 114.842 174.529 114.372 174.587 114.317L174.828 114.088L174.254 113.518L175.075 112.867ZM172.477 114.023L172.379 114.007L172.299 114.076C172.155 114.197 157.901 126.225 153.837 126.916L153.707 126.938L153.648 127.078C153.492 127.457 153.281 127.799 153.026 128.091L152.862 127.504H152.535V126.795H152.219L152.402 126.036L151.84 125.902V125.179L151.192 125.068L151.274 124.58L150.946 124.346L151.298 124.031L150.598 123.337L150.825 122.663L150.016 122.302L150.088 122.045L149.932 121.859C150.31 121.672 150.766 121.533 150.962 121.673L151.103 121.773L151.236 121.662C151.379 121.543 165.537 109.749 169.797 109.057L169.956 109.031L170.003 108.849C170.076 108.566 170.336 107.851 170.703 107.606V108.35H171.217L171.033 109.119L171.598 109.231L171.377 109.888H171.921L171.615 110.344L172.491 110.642V111.38L173.049 111.49L172.951 112.191L173.363 112.289L173.065 112.999L173.786 113.17L173.415 113.465L173.949 113.995C173.464 114.112 172.965 114.122 172.477 114.023Z" fill="white"/>
<path d="M109.468 170.549C113.493 170.549 116.757 166.663 116.757 161.868C116.757 157.074 113.493 153.188 109.468 153.188C105.442 153.188 102.179 157.074 102.179 161.868C102.179 166.663 105.442 170.549 109.468 170.549Z" fill="#7EB685"/>
<path d="M114.057 161.011H110.188V156.403H108.748V161.011H104.879V162.726H108.748V167.334H110.188V162.726H114.057V161.011Z" fill="white"/>
<path d="M132.457 162.168L128.686 160.073V161.27H119.89V163.066H128.686V164.263L132.457 162.168Z" fill="white"/>
<path d="M86.4791 162.168L90.2492 160.073V161.27H99.0462V163.066H90.2492V164.263L86.4791 162.168Z" fill="white"/>
<path d="M201.584 231.017H17.3516V231.616H201.584V231.017Z" fill="#3F3D56"/>
<path d="M133.596 47.8188H85.3391V48.4175H133.596V47.8188Z" fill="white"/>
<path d="M133.713 211.26H85.4559V211.859H133.713V211.26Z" fill="white"/>
<path d="M211.252 152.14L209.995 157.827C209.995 157.827 205.471 169.801 209.995 170.4C214.519 170.998 214.771 154.834 214.771 154.834L211.252 152.14Z" fill="#A0616A"/>
<path d="M219.043 111.13L209.995 153.637C209.995 153.637 213.514 154.834 215.273 156.331L219.043 111.13Z" fill="#D0CDE1"/>
<path d="M247.445 143.459L249.958 189.857C249.958 189.857 255.99 208.117 255.739 225.479C255.739 225.479 253.477 232.364 255.236 233.561C256.996 234.759 258.001 235.657 256.996 236.555C255.99 237.453 255.236 239.548 255.99 240.147C256.744 240.745 256.996 241.643 256.744 241.643H249.204C249.204 241.643 250.712 237.153 248.45 235.956C246.188 234.759 247.445 231.765 247.445 231.765L230.605 173.094L217.284 226.976C217.284 226.976 219.546 228.772 217.787 229.67C216.027 230.568 215.273 228.772 216.027 230.568C216.781 232.364 215.776 233.262 215.776 233.561C215.776 233.861 208.236 232.663 208.236 232.663C208.236 232.663 212.006 228.772 210.246 227.874C208.487 226.976 207.733 226.078 208.236 225.479C208.738 224.88 210.749 219.193 210.749 219.193C210.749 219.193 211.754 197.64 212.006 196.742C212.257 195.844 212.006 191.653 212.006 189.558C212.006 187.462 211.754 179.081 212.508 176.985C213.263 174.89 214.017 149.147 218.038 146.153C222.059 143.16 247.445 143.459 247.445 143.459Z" fill="#2F2E41"/>
<path d="M215.525 232.064C215.525 232.064 220.551 244.338 217.033 245.834C213.514 247.331 208.99 246.134 207.984 247.93C206.979 249.726 195.92 251.821 195.669 247.331C195.417 242.841 207.733 234.459 207.733 234.459L209.337 231.383L215.525 232.064Z" fill="#2F2E41"/>
<path d="M256.242 241.045C256.242 241.045 261.268 253.318 257.75 254.814C254.231 256.311 249.707 255.114 248.701 256.91C247.696 258.706 236.637 260.801 236.386 256.311C236.134 251.821 248.45 243.439 248.45 243.439L250.054 240.363L256.242 241.045Z" fill="#2F2E41"/>
<path d="M232.993 87.0328C237.574 87.0328 241.287 82.6101 241.287 77.1544C241.287 71.6988 237.574 67.2761 232.993 67.2761C228.412 67.2761 224.698 71.6988 224.698 77.1544C224.698 82.6101 228.412 87.0328 232.993 87.0328Z" fill="#A0616A"/>
<path d="M238.648 82.3931L237.643 91.074L230.102 97.9589L228.092 94.6661V83.2911L238.648 82.3931Z" fill="#A0616A"/>
<path d="M226.835 93.4687C226.835 93.4687 234.626 94.3667 238.648 91.074L246.691 147.65C246.691 147.65 218.289 150.344 217.033 148.548V130.887L222.059 102.15L226.835 93.4687Z" fill="#3F3D56"/>
<path d="M237.956 88.3689L240.659 91.0738C240.659 91.0738 251.718 93.1692 250.964 96.7613L247.947 139.268L248.953 153.637C248.953 153.637 240.407 150.942 233.872 153.637C227.338 156.331 232.529 95.7426 232.529 95.7426C232.529 95.7426 238.52 89.2561 237.956 88.3689Z" fill="#D0CDE1"/>
<path d="M228.092 91.6455C228.092 91.6455 220.049 98.5575 219.043 103.048C218.038 107.538 214.771 154.834 214.771 154.834C214.771 154.834 216.279 153.936 217.033 155.433C217.787 156.929 229.348 94.0131 228.092 91.6455Z" fill="#D0CDE1"/>
<path d="M250.21 154.235L248.408 161.237C248.408 161.237 247.948 174.291 241.915 172.495C235.883 170.699 243.675 155.433 243.675 155.433L245.434 152.14L250.21 154.235Z" fill="#A0616A"/>
<path d="M224.702 76.7241C224.702 76.7241 223.805 75.12 224.15 73.3926C224.356 72.4118 224.438 71.3997 224.392 70.3901C224.392 70.3901 225.117 67.5932 225.842 66.0302C226.567 64.4673 226.222 63.8092 228.501 63.3156C230.781 62.8221 229.848 59.2849 235.857 63.11C236.06 63.4471 236.342 63.7052 236.668 63.8516C236.993 63.998 237.348 64.0262 237.688 63.9326C238.931 63.6447 239.38 65.7012 239.38 65.7012C239.38 65.7012 240.209 65.1254 240.519 65.948C240.83 66.7706 243.046 65.4543 243.046 71.0069C243.046 76.5595 240.524 81.5194 240.524 81.5194C240.524 81.5194 240.709 72.1792 236.6 71.2332C232.49 70.2872 228.07 67.5315 226.999 71.0687C226.421 73.054 225.65 74.952 224.702 76.7241Z" fill="#2F2E41"/>
<path d="M240.615 78.9448C241.062 78.9448 241.425 78.3685 241.425 77.6576C241.425 76.9467 241.062 76.3704 240.615 76.3704C240.167 76.3704 239.804 76.9467 239.804 77.6576C239.804 78.3685 240.167 78.9448 240.615 78.9448Z" fill="#A0616A"/>
<path d="M248.953 94.6661C248.953 94.6661 252.974 93.4687 254.231 101.551C255.488 109.633 256.996 132.683 256.996 132.683L250.964 156.929C250.964 156.929 244.931 153.038 243.675 153.637L248.422 132.587L244.429 111.13C244.429 111.13 247.947 94.6661 248.953 94.6661Z" fill="#D0CDE1"/>
<path opacity="0.15" d="M243.106 111.539L248.384 132.493L243.106 153.747L246.122 132.493L243.106 111.539Z" fill="black"/>
</g>
<defs>
<clipPath id="clip0_24_166">
<rect width="259" height="259" fill="white"/>
</clipPath>
</defs>
</svg>
